<?xml version="1.0" encoding="UTF-8"?>
<svg width="300px" height="89px" viewBox="0 0 300 89" version="1.1" xmlns="http://www.w3.org/2000/svg" xmlns:xlink="http://www.w3.org/1999/xlink">
    <!-- Generator: Sketch 55.1 (78136) - https://sketchapp.com -->
    <title>Artboard</title>
    <desc>Created with Sketch.</desc>
    <g id="Artboard" stroke="none" stroke-width="1" fill="none" fill-rule="evenodd">
        <g id="skillthrive-logo-dark" fill="#303032">
            <path d="M46.9411608,20.8223743 C50.1889177,18.9515042 55.9543879,11.9201506 55.9543879,9.30093239 C55.9543879,7.74187395 55.3304192,6.26388655 52.7066311,6.26388655 C43.2753451,6.26388655 18.4413932,22.2878892 18.4413932,32.6556279 C18.4413932,34.0182449 18.9655268,35.5866578 21.4801205,35.5866578 C24.4127731,35.5866578 29.8631392,34.8539003 34.7893715,34.8539003 C40.0275884,34.8539003 44.1145829,37.1581887 46.2111176,40.2981323 L53.8547334,37.996962 C56.369327,37.2642047 61.6075438,36.5314472 62.6558111,36.5314472 C63.7040784,36.5314472 64.1221374,37.1550705 64.1221374,37.996962 C64.093069,38.9278781 63.3746782,39.6913308 62.4467816,39.7774068 C60.9804553,39.9863206 56.9995354,40.6161802 54.9030007,41.2429218 C52.8064661,41.8696633 50.3979471,42.6055388 47.674324,43.4411942 C47.8424671,44.1263147 47.9128401,44.831755 47.8833535,45.5365688 C47.8833535,65.8542183 23.8886394,89 11.103522,89 C4.29290425,89 0,84.4974392 0,78.8442933 C0,71.9314282 5.34429141,62.9263066 19.5957352,52.7674818 C27.139516,47.4261476 34.6864168,44.1801879 41.2848851,41.8758995 C39.1883505,39.3626973 35.9405937,38.9448696 32.2716582,38.9448696 C27.6605299,38.9448696 23.3645058,39.8803047 19.9077195,39.8803047 C16.7629175,39.8803047 12.9910271,37.7849301 12.9910271,33.2823694 C12.9910271,19.8744667 40.4456473,2.28205128 53.8609731,2.28205128 C57.2148045,2.28205128 60.8806203,4.15292142 60.8806203,7.93831532 C60.8806203,13.2796495 51.1342302,22.8086147 48.9347406,25.0100053 C47.4684143,26.3726224 46.420147,27.3142937 44.9538208,27.3142937 C43.4874945,27.3142937 42.6482566,26.4755202 42.6482566,25.0100053 C42.6482566,23.5444903 43.7963589,22.8117328 46.9411608,20.8223743 Z M43.0538362,45.1187411 C36.452248,47.4230294 28.9084671,50.881021 21.5737157,56.428151 C8.58892834,66.1691481 4.71096324,73.2909272 4.71096324,78.1084177 C4.71096324,82.4020646 7.12260203,84.812369 11.5215809,84.812369 C21.5799554,84.812369 43.3751801,63.4470321 43.3751801,47.5290454 C43.3715274,46.7151897 43.2635331,45.9051571 43.0538362,45.1187411 Z" id="Shape"></path>
            <path d="M89.2873547,42.0284244 C90.43724,40.4764147 91.3814554,39.421048 92.5313407,39.421048 C93.4662075,39.421048 93.8931298,40.041852 93.8931298,40.8799372 C93.8931298,41.8111431 93.5815075,42.431947 92.3350184,43.9032523 C87.5204571,49.8474496 80.4933783,58.7063214 73.1827235,58.7063214 C67.5298982,58.7063214 63.7623869,51.6167408 63.7623869,49.3228704 C63.7623869,48.0812625 67.6358498,47.8639812 72.5532468,44.3191908 C74.6473475,42.8603017 76.741448,40.9823699 76.741448,39.73145 C76.741448,38.8964687 76.1182038,38.0645915 75.2768241,38.0645915 C74.0303356,38.0645915 70.1475241,39.9270032 64.4978151,46.6130613 C60.9390905,50.5737902 58.2186294,54.3265498 58.2186294,56.8314936 C58.2186294,57.6664748 56.4392671,59.3333333 55.3922168,59.3333333 C54.3451665,59.3333333 52.6717557,58.811858 52.6717557,56.4155549 C52.6717557,51.9333508 62.509666,26.3903741 67.3179953,16.994507 C72.0266054,7.71659255 78.4117426,0 83.9586163,0 C85.828349,0 88.2496528,2.18833377 88.2496528,4.06626559 C88.2496528,6.8816113 86.5762421,12.9282413 79.8763666,22.5196617 C73.176491,32.0055454 64.9185049,37.4189555 62.8150557,39.4086319 C62.2915305,39.9301072 60.3033814,43.9963729 60.3033814,45.1448601 C60.3033814,45.2472927 60.3033814,45.3528294 60.4093329,45.3528294 C60.720955,45.3528294 61.4563832,44.6233848 62.9210072,43.1644956 C70.1412916,35.8669457 74.7626476,33.7810446 78.0970042,33.7810446 C79.6551149,33.7810446 81.3409905,35.5534397 81.3409905,37.7417734 C81.3409905,44.7258174 68.5644837,49.5370477 68.5644837,50.3565088 C68.5644837,51.5981167 70.7614196,54.7362803 74.2173089,54.7362803 C79.1347059,54.7486965 85.504262,47.0321039 89.2873547,42.0284244 Z M71.2849448,18.5713489 C67.3086465,26.5983434 64.6910208,33.374418 64.5850693,33.687924 C65.4233327,33.06712 71.5965669,27.5357572 77.049954,19.8222687 C82.3880409,12.1087801 84.2577735,6.58362542 84.2577735,5.54067486 C84.2577735,4.39529166 83.6345293,4.08178568 82.7931495,4.08178568 C80.2845916,4.08178568 75.4700299,10.327073 71.2849448,18.5713489 Z" id="Shape"></path>
            <path d="M107.564214,42.8947415 C108.794227,41.3650009 109.630637,40.3247774 110.765324,40.3247774 C111.156201,40.2982396 111.539513,40.4411944 111.816547,40.7168276 C112.093581,40.9924609 112.237263,41.3738336 112.21059,41.7627335 C112.21059,42.6805778 111.798536,43.2924741 110.673073,44.7426681 C105.716118,50.6015743 96.4202906,59.3333333 91.2573087,59.3333333 C89.5014639,59.3333333 87.0229008,57.4976446 87.0229008,54.0924422 C86.9983862,49.5858266 92.2782198,39.489539 93.1054035,37.9597985 C94.2400916,36.0078496 95.1718264,34.3649083 96.5125414,34.3649083 C97.4350521,34.3649083 98.8864679,35.0838863 98.8864679,36.2005969 C98.8864679,37.3173075 97.8532564,38.357531 96.924596,39.8995095 C94.6521463,43.8034073 91.5555863,50.9993069 91.5555863,53.2602634 C91.5555863,54.1781077 92.0721921,55.3162346 93.4006068,55.3162346 C96.4110656,55.3284725 103.846497,47.826625 107.564214,42.8947415 Z M109.630637,18.8502797 C109.630637,21.3162214 106.841581,22.7541775 105.602342,22.7541775 C104.363103,22.7541775 103.846497,20.5972434 103.846497,19.1592873 C103.846497,17.7213312 105.291763,15.974359 107.358186,15.974359 C108.391398,15.971308 109.630637,16.7943084 109.630637,18.8502797 Z" id="Shape"></path>
            <path d="M130.298739,42.1876507 C131.568887,40.6215488 132.432587,39.5565996 133.604299,39.5565996 C134.007929,39.529431 134.403747,39.6757838 134.689822,39.9579687 C134.975895,40.2401537 135.124265,40.6305914 135.096721,41.0287353 C135.096721,41.9683964 134.671223,42.5948372 133.391548,44.0795017 C128.377641,50.0776716 119.102387,59.3333333 113.021554,59.3333333 C109.503245,59.3333333 105.343511,56.4924246 105.343511,51.6531701 C105.343511,42.7107287 112.275342,26.5109715 118.362526,16.1997572 C124.760895,5.36233261 129.562053,0 135.534923,0 C137.560808,0 139.694656,2.20820356 139.694656,4.31304439 C139.694656,7.36381073 137.989483,13.781696 130.308265,23.4602052 C123.376433,32.086294 118.362526,35.5567755 113.66933,39.240247 C111.764108,42.2910134 110.255807,48.1826884 110.255807,50.4973869 C110.255807,53.5481533 111.427519,55.4431364 113.774117,55.4431364 C118.353,55.4431364 126.459717,47.2367629 130.298739,42.1876507 Z M122.192021,17.5716624 C116.539863,27.3566665 115.26019,31.7730736 114.939477,33.4581991 C116.327114,32.8317585 121.658559,28.1992293 127.418679,20.519066 C133.712261,11.9963399 134.991935,8.84221084 134.991935,6.31765472 C134.991935,5.2652343 134.458472,4.84551652 133.40425,4.84551652 C132.003912,4.8423868 127.631428,7.78665822 122.192021,17.5716624 Z" id="Shape"></path>
            <path d="M153.201809,42.1876507 C154.472074,40.6215488 155.335855,39.5565996 156.507674,39.5565996 C156.911343,39.529431 157.307197,39.6757838 157.593297,39.9579687 C157.879398,40.2401537 158.027781,40.6305914 158.000236,41.0287353 C158.000236,41.9683964 157.574697,42.5948372 156.294905,44.0795017 C151.280534,50.0776716 142.004422,59.3333333 135.923027,59.3333333 C132.404392,59.3333333 128.244275,56.4924246 128.244275,51.6531701 C128.244275,42.7107287 135.176747,26.5109715 141.264493,16.1997572 C147.663453,5.36233261 152.46188,0 158.435301,0 C160.461374,0 162.59542,2.20820356 162.59542,4.31304439 C162.59542,7.36381073 160.886913,13.781696 153.20816,23.4602052 C146.269337,32.0894261 141.25179,35.5693044 136.561336,39.2433792 C134.655938,42.2941456 133.147498,48.1858206 133.147498,50.5005191 C133.147498,53.5512854 134.319318,55.4462686 136.666132,55.4462686 C141.25179,55.4431364 149.362433,47.2367629 153.201809,42.1876507 Z M145.094342,17.5716624 C139.441662,27.3566665 138.16187,31.7730736 137.841128,33.4581991 C139.228893,32.8317585 144.560831,28.1992293 150.321483,20.519066 C156.612471,11.9963399 157.895439,8.84221084 157.895439,6.31765472 C157.895439,5.2652343 157.361928,4.84551652 156.307608,4.84551652 C154.90714,4.8423868 150.534252,7.78665822 145.094342,17.5716624 Z" id="Shape"></path>
            <path d="M169.367641,34.2964647 C167.464819,34.2768245 165.565154,34.1349574 163.680132,33.871721 C159.046098,42.7089247 155.362072,53.3528737 155.362072,58.8903897 C155.362072,60.2755612 155.98914,60.792227 155.98914,61.7653337 C155.924912,62.9974057 154.891432,63.9474952 153.672123,63.8953914 C152.198513,63.8953914 151.145038,62.310527 151.145038,59.6384457 C151.145038,53.4638142 154.725598,43.2414391 159.883234,33.1300045 C158.51309,33.1300045 154.618996,31.862113 154.618996,29.6179451 C154.611364,28.9094499 154.886389,28.2277221 155.381965,27.7267106 C155.877541,27.2256991 156.551873,26.9476572 157.252683,26.955373 C159.25303,26.955373 160.096437,28.7652881 161.886717,28.9776599 C164.307201,23.9726582 168.521098,18.0103986 171.364853,14.3969078 C173.246058,11.8421065 174.312074,10.7770776 175.575616,10.7770776 C176.94576,10.7770776 177.892633,11.4110234 177.892633,12.6789149 C177.892633,13.9468063 177.682565,14.8089726 175.575616,16.4033461 C173.785336,17.8931186 168.624565,24.2801219 166.09748,29.7162067 C167.755078,30.1088061 169.449408,30.3213262 171.15165,30.3501525 C172.427668,30.3668212 173.70084,30.2241609 174.942277,29.9254088 C176.974335,25.5662912 179.259815,21.3325838 181.786726,17.2464939 C188.737778,5.96225971 195.582228,0 199.899592,0 C201.89994,0 204.533626,1.70214432 204.533626,4.36471644 C204.533626,10.3269761 198.529447,27.0409556 178.510295,33.5262206 C177.353355,35.5485076 172.929388,48.1069727 172.71932,48.8581984 C177.792302,42.6011539 184.743353,38.230098 189.377387,38.230098 C192.537811,38.230098 193.58815,39.9322424 193.58815,42.4870436 C193.58815,45.1496158 192.02048,50.7917329 192.02048,53.0263916 C192.02048,54.9282289 192.547217,56.0059367 194.127429,56.0059367 C197.918056,56.0059367 204.552438,48.1291608 208.343065,43.010049 C209.503142,41.4251846 210.450014,40.3474768 211.503489,40.3474768 C212.556963,40.3474768 212.977099,40.9814225 212.977099,41.8372493 C212.977099,42.7881679 212.663565,43.4221136 211.409429,44.924565 C206.355259,50.9945956 198.140666,60.2565429 192.876428,60.2565429 C188.665665,60.2565429 186.875385,57.8095123 186.875385,53.6571676 C186.875385,50.8899945 188.443056,45.7803918 188.443056,44.715363 C188.443056,43.6503341 188.33959,42.8135257 186.875385,42.8135257 C182.241351,42.8135257 172.139282,53.3528737 170.552799,58.8903897 C169.925731,61.1250485 168.76252,61.8699348 167.498978,61.8699348 C166.338901,61.8699348 165.392028,60.6020433 165.392028,58.6748482 C165.392028,55.4797616 168.342384,45.2605563 173.186486,34.0809232 C171.921439,34.2574845 170.644267,34.3295701 169.367641,34.2964647 Z M185.793692,18.647514 C182.846472,23.5447449 179.896116,29.082261 179.896116,29.082261 C195.064896,23.332373 200.645803,8.75162095 200.645803,5.97810835 C200.645803,4.80847846 199.908998,4.48833586 199.078132,4.48833586 C196.231243,4.48833586 191.061065,10.0195124 185.796828,18.647514 L185.793692,18.647514 Z" id="Shape"></path>
            <path d="M215.739794,34.0328972 C215.739794,35.3375478 214.276658,38.1947325 214.276658,39.1830053 C214.276658,39.4015343 214.276658,39.5091679 214.485233,39.5091679 C214.902383,39.5091679 215.216801,39.1830053 215.730455,38.6317904 C219.599982,34.3590599 222.632097,31.9487179 225.243951,31.9487179 C227.230079,31.9487179 229.007634,33.2533685 229.007634,35.7811289 C229.007634,39.1764821 227.961647,42.3533062 225.349794,42.3533062 C224.267931,42.3161127 223.399165,41.4058842 223.363665,40.2723886 C223.363665,39.1764821 224.095233,37.8620466 224.095233,37.3140934 C224.095233,36.8770354 223.783927,36.5476112 223.161317,36.5476112 C221.698181,36.5476112 214.796539,43.560108 211.450004,49.0363787 C209.043614,52.979685 207.163328,59.3333333 206.220072,59.3333333 C205.174086,59.3333333 203.816794,57.9080026 203.816794,56.8153577 C203.816794,55.6085559 205.488505,50.8987674 207.057485,46.8478274 C208.729195,42.6859921 210.298174,38.5208952 210.821167,36.3290822 C211.552736,33.7002114 212.284303,32.3857759 213.750552,32.3857759 C214.799651,32.375991 215.739794,33.1424732 215.739794,34.0328972 Z" id="Path"></path>
            <path d="M247.258859,42.8947415 C248.488875,41.3650009 249.325287,40.3247774 250.459977,40.3247774 C250.850855,40.2982396 251.234168,40.4411944 251.511202,40.7168276 C251.788237,40.9924609 251.93192,41.3738336 251.905247,41.7627335 C251.905247,42.6805778 251.493191,43.2924741 250.367726,44.7426681 C245.410758,50.6015743 236.114907,59.3333333 230.951912,59.3333333 C229.196063,59.3333333 226.717557,57.4976446 226.717557,54.0924422 C226.705279,49.5858266 231.972826,39.489539 232.800012,37.9597985 C233.934703,36.0078496 234.86644,34.3649083 236.207158,34.3649083 C237.129671,34.3649083 238.584166,35.0838863 238.584166,36.2005969 C238.584166,37.3173075 237.550952,38.357531 236.622289,39.8995095 C234.349833,43.8034073 231.253266,50.9993069 231.253266,53.2602634 C231.253266,54.1781077 231.769873,55.3162346 233.098291,55.3162346 C236.102607,55.3284725 243.541133,47.826625 247.258859,42.8947415 Z M249.325287,18.8502797 C249.325287,21.3162214 246.536223,22.7541775 245.296982,22.7541775 C244.05774,22.7541775 243.541133,20.5972434 243.541133,19.1592873 C243.541133,17.7213312 244.986402,15.974359 247.05283,15.974359 C248.08297,15.971308 249.325287,16.7943084 249.325287,18.8502797 Z" id="Shape"></path>
            <path d="M254.999889,40.536987 C254.999889,44.3187705 252.231247,52.7981194 252.231247,54.0242326 C252.231247,54.3284791 252.335904,54.7392118 252.865529,54.7392118 C255.529515,54.7392118 265.96663,42.0673467 265.96663,32.154997 C265.96663,29.9066157 264.476067,28.6805024 264.476067,27.4543892 C264.476067,26.3317198 265.427491,25.1025641 266.607255,25.1025641 C267.87582,25.1025641 270.229008,25.3064092 270.229008,31.4369754 C270.229008,40.6343459 258.726298,59.3333333 251.374966,59.3333333 C249.351605,59.3333333 247.328244,57.5078546 247.328244,55.1438596 C247.328244,52.8954782 250.204715,45.9464891 250.204715,41.7570153 C250.204715,40.6343459 250.100058,40.5400295 250.100058,38.9975 C250.100058,37.3636964 250.953168,36.4418297 252.231247,36.4418297 C253.192185,36.4509571 254.999889,37.9843592 254.999889,40.536987 Z" id="Path"></path>
            <path d="M295.153182,42.4737222 C296.436257,40.9421442 297.414602,39.9006711 298.492386,39.9006711 C299.57017,39.9006711 300,40.5133024 300,41.3403545 C300,42.2593013 299.57017,42.8719325 298.396155,44.3238685 C293.22536,50.1898124 284.391384,59.3333333 272.433118,59.3333333 C269.093914,59.3333333 265.969624,56.0404405 265.969624,52.7475477 C265.969624,51.7183273 265.648855,51.4089486 265.648855,50.3827913 C265.648855,49.4638445 266.511724,48.3243503 267.480446,47.9138874 C271.897434,38.1393564 279.114735,34.2307692 284.609507,34.2307692 C286.656013,34.2307692 289.026495,35.875684 289.026495,37.8330407 C289.026495,43.0802271 279.653627,49.0472552 272.988049,50.4869386 C271.063435,50.8974015 270.941543,51.516159 270.941543,52.5453795 C270.941543,53.5745999 271.583081,55.6330408 274.174894,55.6330408 C283.624747,55.6422302 291.275086,47.4115298 295.153182,42.4737222 Z M272.314434,47.3104456 C276.083468,47.2062984 284.596676,41.4445018 284.596676,39.2849767 C284.596676,38.4609877 284.166846,38.2557563 283.313601,38.2557563 C279.974395,38.2557563 273.927901,44.8415419 272.314434,47.3104456 Z" id="Shape"></path>
        </g>
    </g>
</svg>